<?xml version="1.0" encoding="UTF-8"?>
<svg enable-background="new 0 0 1080 1080" version="1.1" viewBox="0 0 1080 1080" xml:space="preserve" xmlns="http://www.w3.org/2000/svg">
	<style type="text/css">
	.st0{fill:#A92517;}
	.st1{fill:#FFFFFF;}
</style>
	<path class="st0" d="M1080,0H302.8C135.6,0,0,135.6,0,302.8V1080h777.2c167.2,0,302.8-135.6,302.8-302.8V0z" />
	<path class="st1" d="m328.9 711.1c-91.1 0-165.2-74.1-165.2-165.2s74.1-165.2 165.2-165.2 165.2 74.1 165.2 165.2-74.1 165.2-165.2 165.2zm0-292.4c-70.1 0-127.2 57.1-127.2 127.2s57.1 127.2 127.2 127.2c70.2 0 127.2-57.1 127.2-127.2 0-70.2-57-127.2-127.2-127.2z" />
	<path class="st1" d="m328.9 788.6c-64.8 0-125.8-25.2-171.6-71.1-45.8-45.8-71.1-106.8-71.1-171.6s25.2-125.8 71.1-171.6c45.8-45.8 106.8-71.1 171.6-71.1s125.8 25.2 171.6 71.1 71.1 106.8 71.1 171.6-25.2 125.8-71.1 171.6c-45.8 45.8-106.8 71.1-171.6 71.1zm0-447.4c-112.9 0-204.7 91.8-204.7 204.7s91.8 204.7 204.7 204.7 204.7-91.8 204.7-204.7-91.8-204.7-204.7-204.7z" />
	<path class="st1" d="M724.6,587.8L553,309.9h92.8l121,204.9l119.1-204.9h89.6l-171,277.9V767h-80V587.8z" />
</svg>