<?xml version="1.0" encoding="UTF-8"?>
<svg enable-background="new 0 0 1080 1080" version="1.1" viewBox="0 0 1080 1080" xml:space="preserve" xmlns="http://www.w3.org/2000/svg">
	<style type="text/css">
	.st0{fill:#A92517;}
	.st1{fill:#FFFFFF;}
</style>
	<path class="st0" d="M1080,0H0v1080h1080V0z" />
	<path class="st1" d="m365.2 681.4c-74.6 0-135.5-60.7-135.5-135.5s60.8-135.5 135.5-135.5 135.5 60.7 135.5 135.5-60.7 135.5-135.5 135.5zm0-239.7c-57.4 0-104.2 46.8-104.2 104.2s46.8 104.2 104.2 104.2c57.5 0 104.2-46.8 104.2-104.2 0.2-57.5-46.6-104.2-104.2-104.2z" />
	<path class="st1" d="m365.2 744.8c-53.2 0-103.2-20.6-140.7-58.3-37.5-37.5-58.3-87.6-58.3-140.7s20.6-103.2 58.3-140.7c37.5-37.4 87.7-58.1 140.7-58.1s103.2 20.6 140.7 58.3 58.3 87.6 58.3 140.7-20.6 103.2-58.3 140.7c-37.5 37.5-87.5 58.1-140.7 58.1zm0-366.7c-92.6 0-167.8 75.2-167.8 167.8s75.2 167.8 167.8 167.8 167.8-75.2 167.8-167.8-75.2-167.8-167.8-167.8z" />
	<path class="st1" d="m689.7 580.2-140.6-227.8h76.1l99.2 168 97.6-168h73.5l-140.3 227.8v146.9h-65.6l0.1-146.9z" />
</svg>