<?xml version="1.0" encoding="UTF-8"?>
<svg enable-background="new 0 0 1080 1080" version="1.1" viewBox="0 0 1080 1080" xml:space="preserve" xmlns="http://www.w3.org/2000/svg">
	<style type="text/css">
	.st0{fill:#FFFFFF;}
</style>
	<path class="st0" d="m310.7 733.5c-103.3 0-187.6-84-187.6-187.6s84.2-187.6 187.6-187.6 187.6 84 187.6 187.6-84 187.6-187.6 187.6zm0-331.8c-79.4 0-144.2 64.8-144.2 144.2s64.8 144.2 144.2 144.2c79.6 0 144.2-64.8 144.2-144.2 0.3-79.6-64.5-144.2-144.2-144.2z" />
	<path class="st0" d="m310.7 821.2c-73.6 0-142.8-28.5-194.7-80.7-51.9-51.9-80.7-121.3-80.7-194.7s28.5-142.9 80.7-194.8c51.9-51.8 121.4-80.4 194.7-80.4s142.8 28.5 194.7 80.7 80.7 121.3 80.7 194.7-28.5 142.8-80.7 194.7c-51.8 52-121 80.5-194.7 80.5zm0-507.6c-128.2 0-232.3 104.1-232.3 232.3s104.1 232.3 232.3 232.3 232.3-104.1 232.3-232.3-104.1-232.3-232.3-232.3z" />
	<path class="st0" d="m759.9 593.4-194.6-315.3h105.3l137.3 232.5 135.1-232.5h101.7l-194.2 315.3v203.3h-90.8l0.2-203.3z" />
</svg>