<?xml version="1.0" standalone="no"?>
<!DOCTYPE svg PUBLIC "-//W3C//DTD SVG 20010904//EN"
 "http://www.w3.org/TR/2001/REC-SVG-20010904/DTD/svg10.dtd">
<svg version="1.0" xmlns="http://www.w3.org/2000/svg"
 width="700.000000pt" height="700.000000pt" viewBox="0 0 700.000000 700.000000"
 preserveAspectRatio="xMidYMid meet">
<metadata>
Created by potrace 1.14, written by Peter Selinger 2001-2017
</metadata>
<g transform="translate(0.000000,700.000000) scale(0.100000,-0.100000)"
fill="#000000" stroke="none">
<path d="M1917 5244 c-1 -1 -36 -5 -78 -8 -66 -5 -116 -13 -204 -30 -170 -34
-403 -128 -560 -226 -292 -183 -525 -442 -670 -745 -49 -101 -117 -291 -129
-360 -3 -16 -10 -51 -16 -79 -5 -28 -13 -69 -16 -91 -10 -66 -13 -396 -4 -450
5 -27 11 -66 14 -85 7 -56 17 -99 42 -193 147 -535 581 -1004 1101 -1190 85
-31 238 -72 308 -83 28 -4 56 -8 63 -10 101 -20 422 -19 502 1 8 2 35 7 60 10
130 18 328 83 475 157 495 248 846 702 955 1234 28 137 34 198 34 359 1 124
-3 184 -19 302 -6 44 -44 203 -55 228 -4 11 -20 56 -36 100 -37 106 -110 251
-180 355 -300 450 -766 736 -1294 795 -60 7 -287 14 -293 9z m323 -294 c36 -7
76 -14 90 -16 140 -25 359 -115 478 -195 24 -16 45 -29 48 -29 3 0 40 -28 82
-62 315 -253 509 -586 566 -973 13 -89 14 -359 2 -420 -4 -16 -14 -66 -22
-110 -33 -165 -118 -367 -214 -511 -29 -43 -56 -81 -59 -84 -3 -3 -24 -27 -46
-55 -39 -49 -92 -103 -172 -176 -51 -47 -212 -159 -229 -159 -7 0 -14 -4 -16
-9 -5 -14 -171 -88 -271 -120 -245 -80 -510 -95 -757 -45 -78 16 -233 60 -260
75 -8 4 -50 24 -92 43 -43 19 -116 60 -164 91 -374 243 -611 610 -681 1055
-10 61 -10 362 1 430 65 441 342 852 727 1079 41 25 198 101 207 101 5 0 22 6
38 14 52 26 226 68 334 80 123 15 318 13 410 -4z"/>
<path d="M1928 4675 c-2 -1 -30 -5 -63 -8 -63 -6 -71 -8 -145 -26 -334 -86
-617 -307 -776 -605 -188 -354 -195 -752 -18 -1111 172 -350 497 -593 884
-661 90 -16 302 -21 360 -9 13 2 42 7 63 10 80 12 215 58 314 106 339 165 577
472 659 849 22 103 26 322 8 435 -41 250 -159 480 -339 661 -49 49 -119 111
-155 136 -137 97 -335 180 -500 209 -58 10 -284 21 -292 14z m253 -295 c354
-62 650 -337 738 -685 20 -79 23 -101 26 -206 10 -325 -148 -628 -419 -807
-161 -105 -320 -151 -521 -150 -190 0 -359 52 -516 159 -129 86 -258 238 -320
374 -12 28 -26 60 -32 72 -5 12 -20 63 -32 115 -19 78 -23 115 -20 228 3 161
24 251 89 385 186 382 591 589 1007 515z"/>
<path d="M3673 5186 c3 -6 133 -218 289 -471 156 -253 291 -471 299 -485 8
-14 16 -27 19 -30 3 -3 12 -17 20 -32 16 -30 231 -379 285 -463 18 -27 102
-163 186 -301 l154 -251 -1 -649 c0 -357 1 -654 3 -659 4 -12 567 -14 578 -3
4 4 7 299 7 657 l0 650 65 108 c192 315 647 1055 688 1118 27 43 48 77 100
163 6 9 18 28 27 42 14 22 365 595 374 611 2 3 -145 6 -325 6 l-329 0 -204
-350 c-111 -192 -214 -368 -227 -391 -13 -22 -46 -79 -74 -126 -27 -47 -58
-100 -68 -117 -17 -30 -197 -341 -272 -470 l-31 -52 -36 62 c-21 34 -86 145
-146 247 -61 102 -170 287 -244 412 -74 125 -139 236 -145 246 -5 10 -79 135
-164 278 l-153 261 -340 0 c-245 0 -338 -3 -335 -11z"/>
</g>
</svg>
